<svg width="24" height="24" viewBox="0 0 24 24" fill="none" xmlns="http://www.w3.org/2000/svg">
<g clip-path="url(#clip0_400_235)">
<path d="M23.1477 1.25817C23.131 1.19506 23.1158 1.13925 23.1038 1.0923C23.228 0.667728 23.072 0.40276 22.963 0.278621C22.6422 -0.0854502 22.1139 -0.000430764 21.9579 0.0324295C21.9297 0.0392102 21.9021 0.0475557 21.875 0.0585091C21.8061 0.0866751 21.7357 0.117971 21.6663 0.14718C21.1103 0.336517 20.5783 0.623393 20.0984 0.886797L20.0624 0.906617C19.3228 0.339647 18.4022 0.00895789 17.4227 0.00895789C15.026 0.00895789 13.0757 1.95867 13.0757 4.3559C13.0757 4.35955 13.0762 4.36268 13.0762 4.36634C11.2209 4.77996 9.81317 6.38177 9.68955 8.32939C7.62666 8.57089 6.00503 10.2603 5.86472 12.3524C5.75101 12.3436 5.63731 12.3352 5.52151 12.3352C3.1248 12.3352 1.17457 14.2849 1.17457 16.6822C1.17457 17.4186 1.36756 18.1176 1.70033 18.7372C1.66069 18.7925 1.61896 18.8494 1.58141 18.9015C1.53655 18.9641 1.4943 19.0231 1.45153 19.083C1.39155 19.1665 1.33469 19.2468 1.28149 19.3219C1.2455 19.3725 1.20951 19.4236 1.17561 19.4722C1.09476 19.5874 1.02018 19.6949 0.955498 19.7888C0.939328 19.8122 0.925246 19.8331 0.910119 19.8555C0.842312 19.9551 0.783373 20.0433 0.732778 20.1194C0.727041 20.1278 0.719738 20.1387 0.714522 20.1471C0.714001 20.1476 0.714001 20.1481 0.714001 20.1487C0.636284 20.2676 0.576822 20.3604 0.535095 20.4288L0.493368 20.4668C0.33689 20.6097 0.283166 20.834 0.356711 21.0328C0.411478 21.1804 0.530922 21.3468 0.769811 21.6075C2.22922 23.1994 4.06679 24.0011 6.01076 24.0006C7.76644 24.0006 9.60871 23.3465 11.3367 22.0316C17.1389 17.6137 22.1133 10.324 22.1728 10.2358C24.5361 6.47513 23.4909 2.54859 23.1477 1.25817ZM21.1301 2.09898C21.1077 2.06246 21.0853 2.02595 21.0618 1.98944C21.0097 1.90912 20.9538 1.8314 20.8965 1.75473C20.8787 1.73125 20.8636 1.7057 20.8454 1.68222C21.0368 1.58416 21.223 1.49289 21.4066 1.40578C21.3226 1.63998 21.2272 1.86948 21.1301 2.09898ZM17.4227 1.05214C18.2942 1.05214 19.1022 1.39952 19.702 1.97379C19.7401 2.01031 19.775 2.04942 19.8116 2.08802C19.8835 2.16417 19.9529 2.24294 20.0176 2.32587C20.0531 2.37125 20.0875 2.41715 20.1203 2.46409C20.1819 2.55172 20.2382 2.643 20.2909 2.73688C20.3159 2.78174 20.3431 2.82503 20.3665 2.87093C20.4375 3.01176 20.5021 3.15729 20.5527 3.31011C20.2841 3.82492 19.9879 4.33504 19.6707 4.82794C19.6692 4.83003 19.6373 4.87906 19.5878 4.95365C19.5768 4.97034 19.5695 4.98129 19.556 5.00163C19.5388 5.02719 19.5143 5.0637 19.4939 5.095C19.471 5.12995 19.4491 5.16176 19.4214 5.20297C19.3932 5.24522 19.3578 5.29738 19.3249 5.34588C19.2957 5.38918 19.2681 5.42986 19.2352 5.47837C19.1997 5.53001 19.1585 5.58999 19.1194 5.64736C19.0808 5.70317 19.0433 5.75794 19.001 5.81897C18.9572 5.88208 18.9076 5.9525 18.8602 6.02082C18.8158 6.08446 18.772 6.14705 18.724 6.21486C18.6708 6.29049 18.6129 6.37186 18.5556 6.4527C18.506 6.5226 18.4565 6.59249 18.4038 6.66603C18.3407 6.75366 18.2739 6.8465 18.2066 6.93883C18.1701 6.9889 18.1336 7.04001 18.096 7.09113C18.0851 7.0614 18.0684 7.03428 18.0564 7.00507C18.0449 6.97638 18.0308 6.94926 18.0189 6.92057C17.9771 6.82199 17.9333 6.72497 17.8843 6.63004C17.8488 6.56067 17.8139 6.4913 17.7747 6.42401C17.7727 6.42036 17.7711 6.41619 17.769 6.41254C17.7669 6.40941 17.7638 6.40785 17.7622 6.40472C17.7591 6.3995 17.7554 6.39533 17.7528 6.39011C17.7507 6.38646 17.7487 6.38229 17.7466 6.37864C17.7429 6.37238 17.7419 6.36507 17.7382 6.35882C17.7273 6.34056 17.7132 6.32491 17.7017 6.30666C17.6709 6.25763 17.6376 6.21068 17.6047 6.16322C17.5405 6.06933 17.4774 5.97597 17.4065 5.88782C17.3997 5.87947 17.3945 5.86904 17.3877 5.8607C17.3825 5.85444 17.3747 5.85183 17.3689 5.84557C17.3684 5.84505 17.3679 5.844 17.3669 5.84348C17.3627 5.83775 17.3616 5.83096 17.3575 5.82575C17.3569 5.82314 17.3564 5.82366 17.3554 5.82314C17.3376 5.80176 17.3157 5.78402 17.2975 5.76316C17.2636 5.72404 17.2281 5.68596 17.1926 5.64789C17.1155 5.56547 17.0383 5.48411 16.9548 5.40795C16.912 5.36883 16.8656 5.33389 16.8213 5.29633C16.8197 5.29477 16.8181 5.29373 16.8166 5.29216C16.7639 5.24783 16.7128 5.2014 16.658 5.15968C16.5954 5.11169 16.5328 5.06527 16.4676 5.02093C16.4562 5.01259 16.4463 5.00216 16.4343 4.99433C16.4327 4.99329 16.4316 4.99277 16.4301 4.99172C16.4254 4.98859 16.4202 4.98859 16.4155 4.98599C16.4071 4.97973 16.4009 4.9719 16.392 4.96617C16.3784 4.9573 16.3623 4.95104 16.3487 4.94217C16.295 4.90775 16.2387 4.87854 16.1834 4.84672C16.0926 4.79456 16.0024 4.74292 15.9074 4.69755C15.8887 4.68868 15.8725 4.67616 15.8537 4.66782C15.8532 4.66782 15.8527 4.66729 15.8522 4.66677C15.8433 4.6626 15.8339 4.66364 15.825 4.65999C15.8183 4.65634 15.8136 4.65008 15.8063 4.64643C15.7645 4.62765 15.7254 4.61357 15.6847 4.59636C15.654 4.58332 15.6232 4.57028 15.5914 4.55776C15.5481 4.54055 15.5043 4.52281 15.4615 4.50769C15.4286 4.49621 15.3952 4.48578 15.3619 4.47483C15.3113 4.45814 15.2596 4.43884 15.2096 4.42475V4.4258C15.2049 4.42475 15.2002 4.4258 15.1955 4.42475C15.0724 4.38981 14.9472 4.35955 14.8204 4.33556C14.7829 4.32878 14.7448 4.32513 14.7067 4.31887C14.5388 4.29175 14.3682 4.27506 14.1945 4.26828C14.1695 4.26723 14.1455 4.2615 14.1205 4.26097C14.1711 2.48287 15.6326 1.05214 17.4227 1.05214ZM13.6896 5.31981C13.7992 5.30885 13.9103 5.30259 14.0224 5.30259C14.3969 5.30259 14.7553 5.37405 15.0927 5.49141C15.1532 5.51279 15.2148 5.53366 15.2768 5.55974C15.4025 5.6119 15.5236 5.6724 15.6409 5.73916C15.68 5.76107 15.7212 5.78141 15.7588 5.80436C15.9022 5.89408 16.0378 5.99422 16.1656 6.10376C16.1776 6.11419 16.1917 6.12253 16.2037 6.13349C16.3461 6.25919 16.4775 6.39741 16.597 6.54607C16.6048 6.55598 16.6116 6.56797 16.6194 6.57788C16.7227 6.70985 16.815 6.85015 16.8974 6.99724C16.9266 7.04992 16.9506 7.10521 16.9772 7.15946C17.0299 7.26639 17.0779 7.3754 17.1191 7.48806C17.1436 7.55587 17.165 7.6242 17.1853 7.69357C17.2156 7.79789 17.238 7.90481 17.2578 8.0133C17.2678 8.06755 17.285 8.11919 17.2923 8.175C17.2855 8.18387 17.2787 8.19325 17.2719 8.20212C17.2125 8.28088 17.1488 8.36173 17.0889 8.44101C16.9157 8.66738 16.743 8.89427 16.5688 9.11699C16.4744 9.23748 16.3795 9.35484 16.2851 9.47376C16.1349 9.6631 15.9846 9.85348 15.8339 10.0397C15.7296 10.1685 15.6247 10.2937 15.5204 10.4205C15.378 10.5936 15.2356 10.7673 15.0927 10.9373C14.9868 11.0636 14.8804 11.1861 14.7745 11.3103C14.6624 11.4412 14.5508 11.5721 14.4386 11.701C14.3896 11.4814 14.3234 11.2686 14.2425 11.0625C14.2415 11.0594 14.2404 11.0563 14.2389 11.0531C14.1591 10.8518 14.0652 10.6583 13.9577 10.4726C13.9494 10.4585 13.9405 10.445 13.9322 10.4309C13.7188 10.0725 13.4565 9.74812 13.1529 9.46542C13.13 9.44403 13.1075 9.42369 13.0841 9.40283C12.9323 9.26721 12.7732 9.13994 12.6032 9.02676C12.6016 9.02571 12.6006 9.02519 12.599 9.02415C12.4331 8.91409 12.2579 8.81812 12.0774 8.73102C12.0466 8.71641 12.0169 8.70076 11.9861 8.68668C11.8046 8.60427 11.6174 8.53333 11.4238 8.47648C11.3967 8.46865 11.3691 8.46292 11.342 8.45509C11.162 8.40606 10.9784 8.36799 10.7901 8.34243C10.7698 8.33982 10.751 8.33304 10.7306 8.33043C10.8616 6.7474 12.1139 5.47837 13.6896 5.31981ZM6.89434 12.56C6.9392 10.7767 8.40383 9.34023 10.1971 9.34023C10.2002 9.34023 10.2028 9.34076 10.2059 9.34076C10.2059 9.34076 10.2059 9.34076 10.2064 9.34076C10.3968 9.34128 10.5825 9.36058 10.7646 9.39239C10.7922 9.39709 10.8204 9.3997 10.8475 9.40491C10.9179 9.41899 10.9862 9.43829 11.0551 9.45655C11.089 9.46542 11.1239 9.47272 11.1573 9.48263C11.2241 9.50297 11.2882 9.52748 11.3529 9.552C11.3863 9.56452 11.4207 9.57547 11.4541 9.58903C11.5183 9.61563 11.5808 9.64641 11.6429 9.67666C11.6742 9.69179 11.706 9.70587 11.7363 9.72204C11.7983 9.7549 11.8583 9.79141 11.9183 9.82844C11.9465 9.84566 11.9752 9.86182 12.0028 9.88008C12.0628 9.91972 12.1207 9.96249 12.1781 10.0058C12.2026 10.0246 12.2281 10.0418 12.2521 10.0611C12.31 10.1075 12.3658 10.1565 12.4206 10.2066C12.4415 10.2254 12.4629 10.2436 12.4827 10.2629C12.5385 10.3167 12.5917 10.373 12.6438 10.4304C12.66 10.4481 12.6767 10.4658 12.6929 10.4841C12.7466 10.5462 12.7972 10.6103 12.8462 10.676C12.8577 10.6917 12.8697 10.7068 12.8806 10.7225C12.9312 10.7934 12.9792 10.8664 13.0241 10.9415C13.0314 10.953 13.0387 10.9645 13.0455 10.9765C13.0924 11.0568 13.1362 11.1397 13.1769 11.2242C13.18 11.231 13.1832 11.2378 13.1863 11.244C13.2286 11.3343 13.2671 11.4266 13.3011 11.521C13.3016 11.5221 13.3021 11.5236 13.3026 11.5247C13.408 11.8183 13.4732 12.1318 13.4914 12.4583C13.4914 12.4599 13.4925 12.4609 13.4925 12.4625C13.4956 12.5225 13.5019 12.5819 13.5019 12.643C13.5019 12.6816 13.5008 12.7196 13.4993 12.7577C12.4024 13.9579 11.319 15.0287 10.2753 15.9446C10.1595 15.9509 10.0448 15.9436 9.92948 15.9332C9.89245 15.9295 9.85542 15.9269 9.81786 15.9222C9.81213 15.9217 9.80587 15.9196 9.80013 15.9191C9.79909 15.9128 9.79648 15.9071 9.79543 15.9008C9.76153 15.7141 9.71772 15.5315 9.66034 15.3537C9.65565 15.3385 9.64887 15.3245 9.64417 15.3093C9.59514 15.1622 9.53777 15.0193 9.47361 14.8795C9.44858 14.8248 9.4225 14.7716 9.39537 14.7178C9.34426 14.6172 9.28897 14.5196 9.23003 14.4237C9.19613 14.3679 9.16483 14.311 9.12884 14.2573C9.04539 14.1331 8.95463 14.0142 8.85918 13.8995C8.80597 13.8358 8.7486 13.7759 8.69175 13.7153C8.63281 13.6528 8.57282 13.5912 8.51075 13.5317C8.45129 13.4754 8.39235 13.4201 8.32976 13.3674C8.23431 13.2866 8.13469 13.2104 8.03245 13.1379C7.9829 13.103 7.93335 13.068 7.88224 13.0352C7.75705 12.9538 7.6277 12.8798 7.49417 12.8114C7.4561 12.7921 7.41802 12.7744 7.37942 12.7561C7.22607 12.6831 7.06907 12.6184 6.90686 12.5637C6.90269 12.5637 6.89851 12.5616 6.89434 12.56ZM5.52151 13.3784C5.77813 13.3784 6.02693 13.4107 6.26687 13.4665C6.26791 13.4665 6.26895 13.4676 6.27 13.4676C6.60381 13.5448 6.91364 13.6736 7.19739 13.84C7.22659 13.8572 7.2558 13.875 7.28501 13.8932C7.40654 13.9699 7.52338 14.0528 7.63291 14.1436C7.66421 14.1697 7.69238 14.1983 7.72263 14.2249C7.804 14.298 7.88171 14.3746 7.95526 14.4555C7.9876 14.4904 8.02098 14.5249 8.05123 14.5614C8.13834 14.6652 8.21814 14.7747 8.29221 14.8884C8.31568 14.9244 8.33706 14.9614 8.35897 14.9985C8.43304 15.1236 8.50293 15.252 8.56031 15.387C8.56083 15.3886 8.56187 15.3902 8.56239 15.3917C8.6255 15.5414 8.6761 15.6979 8.71678 15.8575C8.72096 15.8737 8.72513 15.8899 8.7293 15.9066C8.76842 16.0703 8.79711 16.2383 8.81119 16.4104C8.81119 16.4104 8.81119 16.4109 8.81119 16.4115C8.81849 16.5012 8.82475 16.5914 8.82475 16.6832C8.82475 16.8433 8.81276 17.0045 8.78981 17.1631C8.29064 17.5428 7.78365 17.8985 7.27719 18.2162C7.17913 18.2777 7.08055 18.3408 6.98353 18.3992C6.874 18.465 6.76446 18.526 6.65493 18.5875C6.55009 18.647 6.44421 18.7096 6.34041 18.7649C6.33832 18.7659 6.33572 18.7659 6.33363 18.767C6.2267 18.8238 6.11978 18.8765 6.01285 18.9292C5.89758 18.9866 5.78231 19.0439 5.66912 19.0961C5.6686 19.0966 5.66756 19.0961 5.66651 19.0966H5.66599C5.52308 19.1618 5.38016 19.2254 5.23777 19.2833C5.23568 19.2844 5.23411 19.2859 5.23151 19.287C5.15118 19.3198 5.07294 19.3475 4.99366 19.3772C4.85961 19.4278 4.72608 19.4779 4.59256 19.5217C4.52266 19.5447 4.45381 19.5629 4.38444 19.5833H4.3834C4.28638 19.6125 4.19093 19.6391 4.09652 19.6636C4.00994 19.6224 3.93066 19.5718 3.84877 19.5238C3.80182 19.4961 3.75227 19.4732 3.70689 19.4435C3.65265 19.4075 3.60414 19.3642 3.5525 19.3256C3.4847 19.275 3.4148 19.2275 3.35117 19.1717C3.12584 18.9735 2.92607 18.7435 2.7576 18.4858C2.74873 18.4728 2.73726 18.4624 2.72734 18.4504C2.40031 17.9335 2.21723 17.3248 2.21723 16.6837C2.21775 14.8608 3.69959 13.3784 5.52151 13.3784ZM2.33719 19.637C2.34867 19.649 2.36171 19.6594 2.37318 19.6714C2.44308 19.7455 2.51454 19.8185 2.58912 19.8868C2.49106 19.8993 2.32311 19.9171 2.12908 19.9296C2.19532 19.8362 2.25948 19.7455 2.33719 19.637ZM21.3002 9.66466C21.2517 9.73664 16.3696 16.8882 10.7051 21.2007C7.51191 23.6329 4.04384 23.5442 1.62314 20.9858C1.64765 20.9863 1.67269 20.9879 1.6972 20.9879C2.16246 20.9879 2.59799 20.9378 2.71431 20.9232C3.16235 20.9102 3.62605 20.8471 4.11791 20.7323C4.13616 20.7302 4.15494 20.7271 4.17268 20.7229H4.1732C4.40948 20.6676 4.65045 20.5972 4.89404 20.5179C4.89717 20.5169 4.90082 20.5174 4.90395 20.5164C4.98062 20.4919 5.05782 20.4611 5.13449 20.4334C5.29462 20.3771 5.45579 20.3171 5.61905 20.2504C5.62374 20.2488 5.62844 20.2493 5.63313 20.2478C5.72598 20.2097 5.8183 20.1674 5.91114 20.1268C6.05406 20.0642 6.19802 19.9969 6.34302 19.927C6.34719 19.9249 6.35189 19.9259 6.35658 19.9239C6.43638 19.8847 6.51619 19.843 6.59547 19.8023C6.67006 19.7642 6.7436 19.7288 6.81871 19.6891C6.8208 19.6881 6.8234 19.687 6.82549 19.6855C6.82653 19.685 6.82706 19.6844 6.82758 19.6839C6.89904 19.6458 6.97154 19.6031 7.04352 19.5629C7.0503 19.5593 7.05812 19.5582 7.0649 19.5546C7.06647 19.5535 7.06855 19.5525 7.07012 19.5509C7.14418 19.5102 7.21773 19.4659 7.29127 19.4242C7.36012 19.3845 7.42793 19.3475 7.49678 19.3063C7.51399 19.2959 7.53173 19.287 7.54894 19.2766C7.55259 19.2745 7.55415 19.2703 7.55781 19.2682C7.60944 19.2369 7.66212 19.203 7.71376 19.1707C7.71898 19.1675 7.72524 19.1665 7.73045 19.1634C7.75549 19.1477 7.78053 19.1321 7.80504 19.1164C7.83686 19.0966 7.86711 19.0752 7.89893 19.0549C8.05958 18.9532 8.22127 18.8478 8.38401 18.7378C8.5384 18.635 8.6907 18.5296 8.84249 18.4232C8.85448 18.4149 8.86648 18.406 8.87848 18.3977C12.5802 15.7897 15.6028 12.1334 18.1023 8.83168C18.1393 8.78265 18.1779 8.73154 18.215 8.68198C18.2264 8.66686 18.2379 8.65225 18.2494 8.63713C18.2504 8.63608 18.2504 8.63504 18.2515 8.634C18.2969 8.57402 18.3428 8.51247 18.3887 8.45196C18.3892 8.45144 18.3897 8.45092 18.3902 8.44988C18.3965 8.44153 18.4017 8.43423 18.4074 8.42641C19.8366 6.53355 21.3555 4.43727 22.2724 2.05151C22.6391 3.56621 23.1591 6.70567 21.3002 9.66466Z" fill="#007E8D"/>
</g>
<defs>
<clipPath id="clip0_400_235">
<rect width="24" height="24" fill="white"/>
</clipPath>
</defs>
</svg>
