<svg width="24" height="24" viewBox="0 0 24 24" fill="none" xmlns="http://www.w3.org/2000/svg">
<path d="M12 11.112C7.53598 11.112 4.03198 9.50404 4.03198 7.46404C4.03198 5.42404 7.53598 3.81604 12 3.81604C16.464 3.81604 19.968 5.42404 19.968 7.46404C19.968 9.50404 16.464 11.112 12 11.112ZM12 4.53604C7.65598 4.53604 4.75198 6.04804 4.75198 7.46404C4.75198 8.88004 7.65598 10.392 12 10.392C16.344 10.392 19.248 8.88004 19.248 7.46404C19.248 6.04804 16.344 4.53604 12 4.53604ZM8.85598 8.37604H7.05598C6.52798 8.37604 6.09598 7.94404 6.09598 7.41604C6.09598 6.88804 6.52798 6.45604 7.05598 6.45604H8.85598C9.38398 6.45604 9.81598 6.88804 9.81598 7.41604C9.81598 7.94404 9.38398 8.37604 8.85598 8.37604ZM7.05598 7.15204C6.91198 7.15204 6.81598 7.27204 6.81598 7.39204C6.81598 7.53604 6.93598 7.63204 7.05598 7.63204H8.85598C8.99998 7.63204 9.09598 7.51204 9.09598 7.39204C9.09598 7.24804 8.97598 7.15204 8.85598 7.15204H7.05598ZM7.43998 19.632C7.41598 19.632 7.36798 19.632 7.34398 19.608C6.71998 19.416 6.14398 19.2 5.63998 18.912C4.65598 18.384 4.03198 17.352 4.03198 16.224V7.46404C4.03198 7.27204 4.19998 7.10404 4.39198 7.10404C4.58398 7.10404 4.75198 7.27204 4.75198 7.46404C4.75198 8.88004 7.67998 10.392 12 10.392C16.32 10.392 19.248 8.88004 19.248 7.46404C19.248 7.27204 19.416 7.10404 19.608 7.10404C19.8 7.10404 19.968 7.27204 19.968 7.46404V16.2C19.968 17.328 19.368 18.336 18.408 18.864C17.88 19.152 17.304 19.368 16.656 19.56C16.536 19.584 16.44 19.56 16.344 19.512C16.248 19.44 16.2 19.344 16.2 19.224V13.104H7.79998V19.272C7.79998 19.392 7.75198 19.488 7.65598 19.56C7.58398 19.584 7.51198 19.632 7.43998 19.632ZM4.75198 9.00004V16.248C4.75198 17.112 5.23198 17.88 5.97598 18.288C6.31198 18.456 6.69598 18.624 7.07998 18.768V12.744C7.07998 12.552 7.24798 12.384 7.43998 12.384H16.56C16.752 12.384 16.92 12.552 16.92 12.744V18.744C17.328 18.6 17.712 18.432 18.072 18.24C18.816 17.856 19.272 17.064 19.272 16.224V9.02404C18 10.248 15.264 11.112 12 11.112C8.73598 11.112 5.99998 10.248 4.75198 9.00004ZM11.928 20.184C10.2 20.184 8.63998 19.992 7.34398 19.608C7.19998 19.56 7.07998 19.416 7.07998 19.272V12.744C7.07998 12.552 7.24798 12.384 7.43998 12.384H16.56C16.752 12.384 16.92 12.552 16.92 12.744V19.224C16.92 19.392 16.824 19.512 16.656 19.56C15.312 19.968 13.704 20.184 11.928 20.184ZM7.79998 18.984C8.97598 19.296 10.368 19.464 11.928 19.464C13.536 19.464 14.976 19.296 16.2 18.96V13.104H7.79998V18.984ZM11.928 18.624C10.728 18.624 9.74398 17.64 9.74398 16.44C9.74398 15.24 10.728 14.256 11.928 14.256C13.128 14.256 14.112 15.24 14.112 16.44C14.112 17.64 13.128 18.624 11.928 18.624ZM11.928 14.976C11.112 14.976 10.464 15.624 10.464 16.44C10.464 17.256 11.112 17.904 11.928 17.904C12.744 17.904 13.392 17.256 13.392 16.44C13.392 15.624 12.72 14.976 11.928 14.976Z" fill="#007E8D"/>
</svg>
