<svg width="24" height="24" viewBox="0 0 24 24" fill="none" xmlns="http://www.w3.org/2000/svg">
<path d="M22.3578 11.2704C22.1549 11.2704 21.9905 11.4349 21.9905 11.6377V11.8955C21.9905 12.0983 22.1549 12.2628 22.3578 12.2628C22.5607 12.2628 22.7252 12.0983 22.7252 11.8955V11.6377C22.7251 11.4349 22.5608 11.2704 22.3578 11.2704Z" fill="#007E8D"/>
<path d="M10.1622 11.2704C9.95928 11.2704 9.7948 11.4349 9.7948 11.6377V11.8955C9.7948 12.0983 9.95928 12.2628 10.1622 12.2628C10.365 12.2628 10.5295 12.0983 10.5295 11.8955V11.6377C10.5295 11.4349 10.365 11.2704 10.1622 11.2704Z" fill="#007E8D"/>
<path d="M10.1622 7.95679H8.90862C8.70574 7.95679 8.54126 8.12127 8.54126 8.32415C8.54126 8.52702 8.70574 8.69151 8.90862 8.69151H9.79488V10.4782C9.79488 10.6811 9.95937 10.8456 10.1622 10.8456C10.3651 10.8456 10.5296 10.6811 10.5296 10.4782V8.3241C10.5296 8.12122 10.3651 7.95679 10.1622 7.95679Z" fill="#007E8D"/>
<path d="M22.3578 7.95679H21.1042C20.9013 7.95679 20.7368 8.12127 20.7368 8.32415C20.7368 8.52702 20.9013 8.69151 21.1042 8.69151H21.9905V10.4782C21.9905 10.6811 22.155 10.8456 22.3579 10.8456C22.5608 10.8456 22.7253 10.6811 22.7253 10.4782V8.3241C22.7252 8.12122 22.5608 7.95679 22.3578 7.95679Z" fill="#007E8D"/>
<path d="M15.8468 15.6324C16.2165 15.6324 16.5161 15.3296 16.5161 14.956C16.5161 14.5824 16.2165 14.2795 15.8468 14.2795C15.4772 14.2795 15.1776 14.5824 15.1776 14.956C15.1776 15.3296 15.4772 15.6324 15.8468 15.6324Z" fill="#007E8D"/>
<path d="M17.4402 17.9515C17.8098 17.9515 18.1095 17.6487 18.1095 17.2751C18.1095 16.9015 17.8098 16.5986 17.4402 16.5986C17.0706 16.5986 16.771 16.9015 16.771 17.2751C16.771 17.6487 17.0706 17.9515 17.4402 17.9515Z" fill="#007E8D"/>
<path d="M15.4644 20.0773C15.834 20.0773 16.1336 19.7744 16.1336 19.4008C16.1336 19.0272 15.834 18.7244 15.4644 18.7244C15.0948 18.7244 14.7952 19.0272 14.7952 19.4008C14.7952 19.7744 15.0948 20.0773 15.4644 20.0773Z" fill="#007E8D"/>
<path d="M20.4681 20.0773C20.8377 20.0773 21.1373 19.7744 21.1373 19.4008C21.1373 19.0272 20.8377 18.7244 20.4681 18.7244C20.0985 18.7244 19.7988 19.0272 19.7988 19.4008C19.7988 19.7744 20.0985 20.0773 20.4681 20.0773Z" fill="#007E8D"/>
<path d="M19.6712 16.3406C20.0408 16.3406 20.3405 16.0377 20.3405 15.6641C20.3405 15.2905 20.0408 14.9877 19.6712 14.9877C19.3015 14.9877 19.0018 15.2905 19.0018 15.6641C19.0018 16.0377 19.3015 16.3406 19.6712 16.3406Z" fill="#007E8D"/>
<path d="M3.95642 2.69104H3.47759C3.27471 2.69104 3.11023 2.85552 3.11023 3.0584C3.11023 3.26127 3.27471 3.42576 3.47759 3.42576H3.95642C4.15929 3.42576 4.32378 3.26127 4.32378 3.0584C4.32373 2.85548 4.15929 2.69104 3.95642 2.69104Z" fill="#007E8D"/>
<path d="M6.14155 2.69104H5.66277C5.45989 2.69104 5.29541 2.85552 5.29541 3.0584C5.29541 3.26127 5.45989 3.42576 5.66277 3.42576H6.14155C6.34443 3.42576 6.50891 3.26127 6.50891 3.0584C6.50891 2.85548 6.34443 2.69104 6.14155 2.69104Z" fill="#007E8D"/>
<path d="M8.32678 2.69104H7.84795C7.64507 2.69104 7.48059 2.85552 7.48059 3.0584C7.48059 3.26127 7.64507 3.42576 7.84795 3.42576H8.32678C8.52965 3.42576 8.69414 3.26127 8.69414 3.0584C8.69414 2.85548 8.52965 2.69104 8.32678 2.69104Z" fill="#007E8D"/>
<path d="M18.5567 2.69104H17.639C17.4361 2.69104 17.2716 2.85552 17.2716 3.0584C17.2716 3.26127 17.4361 3.42576 17.639 3.42576H18.5567C18.7596 3.42576 18.924 3.26127 18.924 3.0584C18.924 2.85548 18.7596 2.69104 18.5567 2.69104Z" fill="#007E8D"/>
<path d="M11.437 9.28164C11.6399 9.28164 11.8044 9.11716 11.8044 8.91428V8.08455C11.8044 7.3188 11.1982 6.69349 10.4442 6.66944V5.87899C10.9441 5.82564 11.335 5.39913 11.335 4.88233V3.16764C11.335 2.08971 10.4645 1.21277 9.39455 1.21277H2.40984C1.33983 1.21277 0.469359 2.08971 0.469359 3.16764V4.88233C0.469359 5.39913 0.860203 5.82564 1.36017 5.87899V6.66944C0.606188 6.69349 0 7.3188 0 8.08455V21.371C0 22.152 0.630375 22.7873 1.40512 22.7873H10.3993C11.174 22.7873 11.8044 22.152 11.8044 21.371V10.7756C11.8044 10.5727 11.6399 10.4082 11.437 10.4082C11.2342 10.4082 11.0697 10.5727 11.0697 10.7756V21.3711C11.0697 21.7469 10.7689 22.0526 10.3992 22.0526H1.40512C1.03547 22.0526 0.734672 21.7469 0.734672 21.3711V8.08455C0.734672 7.70871 1.03547 7.40294 1.40512 7.40294H10.3993C10.7689 7.40294 11.0697 7.70871 11.0697 8.08455V8.91433C11.0697 9.11716 11.2342 9.28164 11.437 9.28164ZM10.3385 5.15008H4.65305C4.45017 5.15008 4.28569 5.31457 4.28569 5.51744C4.28569 5.72032 4.45017 5.8848 4.65305 5.8848H9.7095V6.66827H2.09484V5.8848H2.84086C3.04373 5.8848 3.20822 5.72032 3.20822 5.51744C3.20822 5.31457 3.04373 5.15008 2.84086 5.15008H1.46597C1.32159 5.15008 1.20408 5.02994 1.20408 4.88233V3.16764C1.20408 2.49485 1.74497 1.94749 2.40984 1.94749H9.39455C10.0594 1.94749 10.6003 2.49489 10.6003 3.16764V4.88233C10.6003 5.02994 10.4828 5.15008 10.3385 5.15008Z" fill="#007E8D"/>
<path d="M23.6326 9.08568C23.8356 9.08568 24 8.92119 24 8.71832V8.08447C24 7.31872 23.3939 6.69341 22.6398 6.66932V5.87887C23.1397 5.82552 23.5305 5.39901 23.5305 4.88221V3.16752C23.5305 2.08958 22.66 1.21265 21.5901 1.21265H14.6054C13.5354 1.21265 12.6649 2.08958 12.6649 3.16752V4.88221C12.6649 5.39901 13.0558 5.82552 13.5558 5.87887V6.66932C12.8017 6.69337 12.1956 7.31868 12.1956 8.08447V21.371C12.1956 22.1519 12.8259 22.7872 13.6007 22.7872H22.5949C23.3696 22.7872 24 22.1519 24 21.371V10.5306C24 10.3277 23.8356 10.1632 23.6326 10.1632C23.4297 10.1632 23.2653 10.3277 23.2653 10.5306V21.371C23.2653 21.7468 22.9645 22.0525 22.5948 22.0525H13.6007C13.2311 22.0525 12.9303 21.7468 12.9303 21.371V8.08447C12.9303 7.70863 13.2311 7.40287 13.6007 7.40287H22.5949C22.9646 7.40287 23.2653 7.70863 23.2653 8.08447V8.71832C23.2653 8.92119 23.4297 9.08568 23.6326 9.08568ZM22.534 5.15001H17.4367C17.2338 5.15001 17.0694 5.31449 17.0694 5.51737C17.0694 5.72024 17.2338 5.88472 17.4367 5.88472H21.9052V6.66819H14.2905V5.88472H15.6245C15.8274 5.88472 15.9919 5.72024 15.9919 5.51737C15.9919 5.31449 15.8274 5.15001 15.6245 5.15001H13.6617C13.5172 5.15001 13.3997 5.02987 13.3997 4.88226V3.16757C13.3997 2.49477 13.9406 1.94741 14.6055 1.94741H21.5902C22.255 1.94741 22.7959 2.49482 22.7959 3.16757V4.88226C22.7959 5.02987 22.6784 5.15001 22.534 5.15001Z" fill="#007E8D"/>
<path d="M20.9193 12.4217C20.4139 12.4217 19.9462 12.6533 19.6306 13.0239C19.3206 12.6473 18.8531 12.4119 18.3421 12.4119C17.955 12.4119 17.5921 12.5443 17.3033 12.7752C16.9836 12.1151 16.3094 11.657 15.5401 11.657C14.5206 11.657 13.6724 12.4472 13.5866 13.4656C13.5818 13.4895 13.5792 13.5141 13.5792 13.5389V21.0213C13.5792 21.2242 13.7437 21.3887 13.9466 21.3887H22.249C22.4519 21.3887 22.6163 21.2242 22.6163 21.0213V14.1329C22.6163 13.1894 21.8551 12.4217 20.9193 12.4217ZM14.3139 20.654V13.5865C14.315 13.5779 14.3159 13.5692 14.3164 13.5605C14.3544 12.9051 14.892 12.3917 15.5401 12.3917C16.2026 12.3917 16.7524 12.9382 16.7655 13.6099C16.7689 13.7845 16.8948 13.9326 17.0665 13.9641C17.2382 13.9956 17.4084 13.9018 17.4736 13.7398C17.6185 13.3795 17.9595 13.1466 18.3421 13.1466C18.7879 13.1466 19.1747 13.468 19.262 13.9109C19.2956 14.0816 19.4444 14.2053 19.6183 14.2073C19.6197 14.2073 19.6211 14.2073 19.6224 14.2073C19.7947 14.2073 19.944 14.0875 19.9811 13.9189C20.0784 13.4771 20.473 13.1564 20.9193 13.1564C21.4499 13.1564 21.8815 13.5945 21.8815 14.133V20.654L14.3139 20.654Z" fill="#007E8D"/>
<path d="M10.0534 13.1715H1.75103C1.54815 13.1715 1.38367 13.336 1.38367 13.5389V21.0213C1.38367 21.2242 1.54815 21.3886 1.75103 21.3886H10.0533C10.2562 21.3886 10.4207 21.2242 10.4207 21.0213V13.5389C10.4207 13.336 10.2563 13.1715 10.0534 13.1715ZM9.68603 14.5561H9.34895C9.14607 14.5561 8.98159 14.7205 8.98159 14.9234C8.98159 15.1263 9.14607 15.2908 9.34895 15.2908H9.68603V17.7129H9.34895C9.14607 17.7129 8.98159 17.8774 8.98159 18.0803C8.98159 18.2831 9.14607 18.4476 9.34895 18.4476H9.68603V20.6539H2.11839V18.4476H2.45551C2.65839 18.4476 2.82287 18.2831 2.82287 18.0803C2.82287 17.8774 2.65839 17.7129 2.45551 17.7129H2.11839V15.2908H2.45551C2.65839 15.2908 2.82287 15.1263 2.82287 14.9234C2.82287 14.7205 2.65839 14.5561 2.45551 14.5561H2.11839V13.9062H9.68603V14.5561Z" fill="#007E8D"/>
<path d="M4.93435 14.5562H4.39116C4.18829 14.5562 4.0238 14.7206 4.0238 14.9235C4.0238 15.1264 4.18829 15.2909 4.39116 15.2909H4.93435C5.13723 15.2909 5.30171 15.1264 5.30171 14.9235C5.30171 14.7206 5.13723 14.5562 4.93435 14.5562Z" fill="#007E8D"/>
<path d="M7.41323 14.5562H6.87004C6.66717 14.5562 6.50269 14.7206 6.50269 14.9235C6.50269 15.1264 6.66717 15.2909 6.87004 15.2909H7.41323C7.61611 15.2909 7.78059 15.1264 7.78059 14.9235C7.78059 14.7206 7.61611 14.5562 7.41323 14.5562Z" fill="#007E8D"/>
<path d="M3.67178 16.1667H3.12859C2.92571 16.1667 2.76123 16.3312 2.76123 16.5341C2.76123 16.737 2.92571 16.9015 3.12859 16.9015H3.67178C3.87465 16.9015 4.03914 16.737 4.03914 16.5341C4.03914 16.3312 3.87465 16.1667 3.67178 16.1667Z" fill="#007E8D"/>
<path d="M6.15061 16.1667H5.60747C5.4046 16.1667 5.24011 16.3312 5.24011 16.5341C5.24011 16.737 5.4046 16.9015 5.60747 16.9015H6.15061C6.35349 16.9015 6.51797 16.737 6.51797 16.5341C6.51797 16.3312 6.35349 16.1667 6.15061 16.1667Z" fill="#007E8D"/>
<path d="M8.62949 16.1667H8.08635C7.88348 16.1667 7.71899 16.3312 7.71899 16.5341C7.71899 16.737 7.88348 16.9015 8.08635 16.9015H8.62949C8.83237 16.9015 8.99685 16.737 8.99685 16.5341C8.99685 16.3312 8.83237 16.1667 8.62949 16.1667Z" fill="#007E8D"/>
<path d="M4.93435 17.7129H4.39116C4.18829 17.7129 4.0238 17.8774 4.0238 18.0803C4.0238 18.2831 4.18829 18.4476 4.39116 18.4476H4.93435C5.13723 18.4476 5.30171 18.2831 5.30171 18.0803C5.30171 17.8774 5.13723 17.7129 4.93435 17.7129Z" fill="#007E8D"/>
<path d="M7.41311 17.7129H6.86992C6.66705 17.7129 6.50256 17.8774 6.50256 18.0803C6.50256 18.2831 6.66705 18.4476 6.86992 18.4476H7.41311C7.61599 18.4476 7.78047 18.2831 7.78047 18.0803C7.78047 17.8774 7.61603 17.7129 7.41311 17.7129Z" fill="#007E8D"/>
<path d="M3.67178 19.3235H3.12859C2.92571 19.3235 2.76123 19.488 2.76123 19.6908C2.76123 19.8937 2.92571 20.0582 3.12859 20.0582H3.67178C3.87465 20.0582 4.03914 19.8937 4.03914 19.6908C4.03914 19.488 3.87465 19.3235 3.67178 19.3235Z" fill="#007E8D"/>
<path d="M6.15061 19.3235H5.60747C5.4046 19.3235 5.24011 19.488 5.24011 19.6908C5.24011 19.8937 5.4046 20.0582 5.60747 20.0582H6.15061C6.35349 20.0582 6.51797 19.8937 6.51797 19.6908C6.51797 19.488 6.35349 19.3235 6.15061 19.3235Z" fill="#007E8D"/>
<path d="M8.62949 19.3235H8.08635C7.88348 19.3235 7.71899 19.488 7.71899 19.6908C7.71899 19.8937 7.88348 20.0582 8.08635 20.0582H8.62949C8.83237 20.0582 8.99685 19.8937 8.99685 19.6908C8.99685 19.488 8.83237 19.3235 8.62949 19.3235Z" fill="#007E8D"/>
</svg>
