<svg width="24" height="24" viewBox="0 0 24 24" fill="none" xmlns="http://www.w3.org/2000/svg">
<path d="M21.1094 7.9597C19.3539 6.26226 16.9827 5.13257 14.4507 4.78724C13.6765 4.68037 12.8867 4.62876 12.0927 4.62735C10.5047 4.62876 8.90345 4.83885 7.38892 5.26092L7.38386 5.26232C7.38386 5.26232 5.79902 5.72273 4.16852 6.20193C3.81358 6.30656 3.45841 6.41113 3.11495 6.51252C3.11289 6.51252 3.11083 6.5107 3.10853 6.50934V6.5084C2.76091 6.41615 2.44413 6.1544 2.33744 5.87891C2.26389 5.70079 2.22255 5.49613 2.22255 5.27962C2.22348 4.89449 2.35094 4.47749 2.64808 4.10563C2.94611 3.73429 3.41706 3.3967 4.14269 3.19392C5.11066 2.92256 7.16027 2.66493 9.07516 2.3511C10.0369 2.19304 10.9715 2.01904 11.7543 1.81073C12.5408 1.59056 13.1619 1.38543 13.5967 0.974337C13.8048 0.768274 13.8069 0.433024 13.6008 0.225181C13.3939 0.0182743 13.0584 0.0159774 12.8515 0.222884C12.7416 0.352634 12.1994 0.604774 11.4809 0.786134C10.3981 1.0762 8.8952 1.31418 7.47278 1.52934C6.0453 1.74674 4.708 1.93912 3.85909 2.1734C2.95028 2.42465 2.26717 2.88238 1.81994 3.44418C1.37153 4.00429 1.16256 4.65838 1.16256 5.27966C1.16256 5.62954 1.2288 5.97032 1.35714 6.2819C1.4597 6.52626 1.61477 6.72909 1.79092 6.90815C1.50841 6.99313 1.25781 7.0694 1.0683 7.12879C0.962782 7.1617 0.874844 7.18954 0.804485 7.21331L0.628376 7.27677C0.462813 7.34802 0.318016 7.45354 0.201954 7.59651C0.0880005 7.73906 6.29791e-05 7.92998 6.29791e-05 8.15427C-0.00293702 8.37674 0.1015 8.60784 0.257875 8.76178C0.415282 8.91937 0.60986 9.01846 0.833454 9.08793C0.880047 9.10162 1.04767 9.16377 1.27014 9.24965C2.05994 9.55476 3.65622 10.1934 5.28236 10.7589C6.09616 11.0403 6.91703 11.3043 7.65906 11.4998C8.40339 11.6958 9.05547 11.8268 9.59172 11.8291L9.82881 11.8186H9.83088C11.4383 11.6624 11.7501 11.5587 13.2385 11.408C13.3722 11.3943 13.5035 11.3879 13.633 11.3879C14.8439 11.3879 15.9402 11.9543 16.7506 12.8624C17.56 13.7678 18.0602 15.0071 18.0589 16.2856C18.0539 17.5907 17.4226 18.5782 16.4062 19.3028C15.4228 19.9975 14.075 20.3877 12.7261 20.4096L7.44691 17.2244C7.26049 17.1124 7.02344 17.1261 6.85169 17.2573C6.67881 17.3902 6.60433 17.6159 6.66438 17.8246L8.0441 22.6287C8.09392 22.8004 8.22522 22.9361 8.39608 22.9891C8.42191 22.9941 11.3938 23.9269 14.2353 23.931C14.3688 23.931 14.5025 23.9287 14.6338 23.925C19.7856 23.7569 24 19.7312 24 14.5421C24.0009 11.9397 22.8644 9.65531 21.1094 7.9597ZM10.4809 22.424C9.95313 22.3112 9.50683 22.1984 9.1953 22.1143C9.10324 22.0896 9.04933 22.0741 8.98197 22.0545L8.05563 18.83L12.1176 21.2789L12.3888 22.7447C11.7003 22.6589 11.043 22.5428 10.4809 22.424ZM13.633 10.3281C13.4674 10.3281 13.2996 10.3364 13.131 10.3542C11.5908 10.5104 11.2884 10.6127 9.72953 10.763H9.7316L9.59177 10.7689C9.18592 10.7722 8.45097 10.6274 7.62297 10.3921C6.37459 10.0413 4.88177 9.50221 3.64591 9.03309C3.02786 8.79829 2.47309 8.58084 2.0403 8.41227C1.73495 8.29307 1.52392 8.21221 1.35306 8.1501C1.38916 8.13867 1.41517 8.13046 1.45441 8.11809C2.21317 7.88334 3.77313 7.42242 5.13845 7.02182C6.50495 6.62118 7.67664 6.28092 7.67983 6.28092C9.09269 5.88717 10.601 5.68752 12.0927 5.68846C12.8388 5.68752 13.5823 5.73735 14.308 5.83645C14.8348 5.90816 15.3533 6.02193 15.8617 6.16673L14.6815 10.445C14.3419 10.3715 13.9932 10.3281 13.633 10.3281ZM17.5428 12.1562C17.0261 11.5766 16.3957 11.1047 15.6886 10.7826L16.8685 6.50207C18.1914 7.01779 19.3964 7.77557 20.3726 8.7216C20.9815 9.31176 21.499 9.97326 21.9097 10.6926L18.1375 12.9615C17.9584 12.6779 17.7643 12.4047 17.5428 12.1562ZM14.5998 22.8648C14.4797 22.8689 14.3575 22.8712 14.2353 22.8712C13.987 22.8712 13.7353 22.8566 13.4838 22.842L13.223 21.4355C14.5986 21.3327 15.9435 20.9229 17.0155 20.1693C17.7693 19.6444 18.3859 18.9364 18.7527 18.0835L21.2719 19.4767C19.7536 21.4703 17.3399 22.7707 14.5998 22.8648ZM19.0529 17.0389C19.093 16.7945 19.12 16.5451 19.1191 16.2856C19.1178 15.452 18.9359 14.6475 18.6253 13.9057L22.3683 11.6542C22.7305 12.5495 22.9397 13.5143 22.9397 14.542C22.9397 16.0257 22.5464 17.4011 21.863 18.5916L19.0529 17.0389Z" fill="#007E8D"/>
<path d="M6.93691 12.2384C6.74435 12.0182 6.41022 11.9954 6.18958 12.1891L3.66808 14.3949C3.44744 14.5872 3.4248 14.9216 3.61825 15.1422C3.81077 15.3629 4.14517 15.3843 4.36558 15.192L6.88732 12.9862C7.10772 12.7934 7.13055 12.459 6.93691 12.2384Z" fill="#007E8D"/>
<path d="M7.38315 15.5534L9.90671 13.3462C10.1274 13.1539 10.1499 12.8195 9.95649 12.5989C9.76393 12.3783 9.42962 12.3559 9.20898 12.5482L6.68541 14.7554C6.46477 14.9486 6.44213 15.283 6.63559 15.5036C6.8281 15.7238 7.16251 15.7466 7.38315 15.5534Z" fill="#007E8D"/>
<path d="M10.8434 15.3127L13.4126 13.1626C13.6374 12.9739 13.6673 12.64 13.48 12.4153C13.2916 12.1905 12.9573 12.1617 12.7327 12.349L10.1623 14.4987C9.93869 14.6874 9.90883 15.0208 10.0961 15.2465C10.2845 15.4698 10.6188 15.5 10.8434 15.3127Z" fill="#007E8D"/>
<path d="M6.21194 7.10681C5.76588 7.10681 5.40344 7.46817 5.40344 7.91531C5.40344 8.36119 5.76588 8.72475 6.21194 8.72475C6.65918 8.72475 7.02138 8.36119 7.02138 7.91531C7.02138 7.46817 6.65918 7.10681 6.21194 7.10681Z" fill="#007E8D"/>
</svg>
