<svg width="24" height="24" viewBox="0 0 24 24" fill="none" xmlns="http://www.w3.org/2000/svg">
<path d="M16.3441 4.34412C15.3616 4.34412 14.4047 4.52768 13.5003 4.88974C13.2974 4.97098 13.1988 5.20118 13.28 5.40401C13.3613 5.60688 13.5914 5.70546 13.7943 5.62427C14.6049 5.2998 15.4627 5.13527 16.3441 5.13527C20.1293 5.13527 23.2088 8.21477 23.2088 12C23.2088 15.7853 20.1293 18.8648 16.3441 18.8648C15.4827 18.8648 14.6429 18.7074 13.848 18.397C13.6444 18.3176 13.415 18.4181 13.3356 18.6216C13.2562 18.8251 13.3567 19.0545 13.5602 19.1339C14.4472 19.4803 15.3838 19.6559 16.3441 19.6559C20.5656 19.6559 24 16.2214 24 12C24 7.77851 20.5655 4.34412 16.3441 4.34412Z" fill="#007E8D"/>
<path d="M15.0431 9.9781C14.8032 9.09943 14.4026 8.26585 13.8695 7.52752C13.3593 6.82079 12.7329 6.20931 12.0181 5.71187C11.3154 5.22296 10.5313 4.85274 9.70665 4.6231C8.88512 4.39435 8.0259 4.30599 7.17493 4.35906C6.46641 4.40321 5.76465 4.54641 5.09579 4.7844C4.44329 5.01657 3.82323 5.33841 3.25712 5.73727C2.6979 6.13121 2.19169 6.59991 1.75566 7.12693C1.31757 7.65648 0.950679 8.24471 0.668866 8.87162C0.380913 9.51216 0.182585 10.1923 0.0809131 10.8871C-0.0239931 11.6046 -0.0267588 12.3372 0.0727568 13.0554C0.169179 13.7516 0.362585 14.4339 0.646038 15.0771C0.923304 15.7063 1.28598 16.2974 1.72046 16.8302C2.15269 17.3604 2.65552 17.8327 3.21188 18.2306C3.77298 18.632 4.38807 18.9573 5.03612 19.1941C5.70212 19.4374 6.40177 19.5864 7.10902 19.6365C7.95357 19.6964 8.80754 19.6171 9.62574 19.3989C10.4516 19.1789 11.2386 18.8181 11.9456 18.338C12.6638 17.8503 13.2952 17.2484 13.8126 16.5504C14.3533 15.8209 14.7634 14.9955 15.0149 14.1228C15.141 13.685 15.2269 13.2359 15.2724 12.7826C15.3653 11.8437 15.2918 10.8889 15.0431 9.9781ZM14.2926 13.7581C14.1139 14.4321 13.8309 15.0776 13.4574 15.6664C13.089 16.2474 12.6332 16.7725 12.1103 17.2194C11.5868 17.6668 10.9965 18.0354 10.364 18.308C9.71279 18.5886 9.01838 18.7664 8.31249 18.8337C7.59582 18.902 6.86841 18.8581 6.16557 18.7019C5.49127 18.552 4.84074 18.2988 4.2421 17.9542C3.65307 17.6152 3.11504 17.1885 2.65013 16.6928C2.18433 16.1963 1.79241 15.6309 1.49185 15.0199C1.18487 14.3959 0.974257 13.7253 0.869585 13.0379C0.817319 12.6945 0.791304 12.3472 0.791304 12C0.791304 11.2902 0.900991 10.5811 1.11807 9.90516C1.32779 9.2522 1.63669 8.63181 2.03021 8.0702C2.41974 7.51421 2.89149 7.01635 3.42549 6.59729C3.96315 6.17532 4.56357 5.83384 5.20168 5.58873C5.85854 5.3364 6.55398 5.18729 7.25644 5.14679C7.97776 5.10516 8.7053 5.17665 9.40402 5.36077C10.0784 5.53848 10.7244 5.82048 11.3138 6.19309C11.8953 6.56068 12.4211 7.01565 12.8687 7.53798C13.3185 8.06256 13.6889 8.65463 13.9627 9.28909C14.2422 9.93699 14.4208 10.6285 14.4883 11.3309C14.5666 12.1434 14.5018 12.969 14.2926 13.7581Z" fill="#007E8D"/>
<path d="M15.2305 13.1996C15.2301 13.2028 15.2301 13.203 15.2305 13.1996V13.1996Z" fill="#007E8D"/>
<path d="M15.2305 13.1996C15.2322 13.1821 15.2435 13.0699 15.2723 12.7827C15.2724 12.7822 15.234 13.1647 15.2305 13.1996Z" fill="#007E8D"/>
<path d="M9.62262 6.90515C8.94429 6.90515 8.39233 7.45706 8.39233 8.13548C8.39233 8.81381 8.94424 9.36576 9.62262 9.36576C10.301 9.36576 10.8529 8.81385 10.8529 8.13548C10.8529 7.45706 10.301 6.90515 9.62262 6.90515ZM9.62262 8.57456C9.38051 8.57456 9.18354 8.37754 9.18354 8.13548C9.18354 7.89332 9.38055 7.69631 9.62262 7.69631C9.86477 7.69631 10.0618 7.89332 10.0618 8.13548C10.0617 8.37759 9.86477 8.57456 9.62262 8.57456Z" fill="#007E8D"/>
<path d="M9.13084 10.3245C8.45242 10.3245 7.90051 10.8764 7.90051 11.5547C7.90051 12.2332 8.45242 12.7851 9.13084 12.7851C9.80917 12.7851 10.3611 12.2332 10.3611 11.5547C10.3611 10.8764 9.80922 10.3245 9.13084 10.3245ZM9.13084 11.9939C8.88868 11.9939 8.69167 11.7969 8.69167 11.5547C8.69167 11.3126 8.88868 11.1157 9.13084 11.1157C9.37295 11.1157 9.56992 11.3127 9.56992 11.5547C9.56997 11.7969 9.37295 11.9939 9.13084 11.9939Z" fill="#007E8D"/>
<path d="M12.2909 9.48975C11.6126 9.48975 11.0607 10.0417 11.0607 10.7201C11.0607 11.3984 11.6126 11.9504 12.2909 11.9504C12.9694 11.9504 13.5213 11.3985 13.5213 10.7201C13.5213 10.0417 12.9694 9.48975 12.2909 9.48975ZM12.291 11.1592C12.0489 11.1592 11.8519 10.9621 11.8519 10.7201C11.8519 10.4779 12.0489 10.2809 12.291 10.2809C12.5332 10.2809 12.7302 10.4779 12.7302 10.7201C12.7301 10.9622 12.5332 11.1592 12.291 11.1592Z" fill="#007E8D"/>
<path d="M18.1603 6.36426C17.482 6.36426 16.9301 6.91616 16.9301 7.59454C16.9301 8.27291 17.482 8.82487 18.1603 8.82487C18.8387 8.82487 19.3907 8.27296 19.3907 7.59454C19.3907 6.91616 18.8388 6.36426 18.1603 6.36426ZM18.1603 8.03366C17.9182 8.03366 17.7213 7.83665 17.7213 7.59449C17.7213 7.35238 17.9183 7.15541 18.1603 7.15541C18.4025 7.15541 18.5995 7.35243 18.5995 7.59449C18.5995 7.83665 18.4025 8.03366 18.1603 8.03366Z" fill="#007E8D"/>
<path d="M17.6686 9.78357C16.9901 9.78357 16.4382 10.3355 16.4382 11.0139C16.4382 11.6923 16.9901 12.2442 17.6686 12.2442C18.3469 12.2442 18.8989 11.6923 18.8989 11.0139C18.8989 10.3355 18.3469 9.78357 17.6686 9.78357ZM17.6685 11.453C17.4264 11.453 17.2293 11.256 17.2293 11.0138C17.2294 10.7717 17.4264 10.5747 17.6685 10.5747C17.9107 10.5747 18.1077 10.7717 18.1077 11.0138C18.1076 11.256 17.9107 11.453 17.6685 11.453Z" fill="#007E8D"/>
<path d="M20.8287 8.94885C20.1503 8.94885 19.5984 9.50076 19.5984 10.1792C19.5984 10.8575 20.1503 11.4095 20.8287 11.4095C21.5071 11.4095 22.059 10.8576 22.059 10.1792C22.059 9.50076 21.5071 8.94885 20.8287 8.94885ZM20.8288 10.6183C20.5866 10.6183 20.3896 10.4212 20.3896 10.1792C20.3896 9.93702 20.5866 9.74001 20.8288 9.74001C21.0709 9.74001 21.2678 9.93702 21.2678 10.1792C21.2679 10.4212 21.0709 10.6183 20.8288 10.6183Z" fill="#007E8D"/>
</svg>
